<?xml version="1.0" encoding="utf-8"?>
<svg version="1.1" baseProfile="full"  width="595" height="842" viewBox="0 0 595 842" xmlns="http://www.w3.org/2000/svg" xmlns:xlink="http://www.w3.org/1999/xlink" xmlns:ev="http://www.w3.org/2001/xml-events">
<rect width="595" height="842" fill="#fff" cx="0" cy="0" />
<defs>
<rect id="p" width="10" height="10" />
</defs><g fill="#ffffff"><use x="133" y="256" xlink:href="#p" />
<use x="133" y="266" xlink:href="#p" />
<use x="133" y="276" xlink:href="#p" />
<use x="133" y="286" xlink:href="#p" />
<use x="133" y="296" xlink:href="#p" />
<use x="133" y="306" xlink:href="#p" />
<use x="133" y="316" xlink:href="#p" />
<use x="133" y="326" xlink:href="#p" />
<use x="133" y="336" xlink:href="#p" />
<use x="133" y="346" xlink:href="#p" />
<use x="133" y="356" xlink:href="#p" />
<use x="133" y="366" xlink:href="#p" />
<use x="133" y="376" xlink:href="#p" />
<use x="133" y="386" xlink:href="#p" />
<use x="133" y="396" xlink:href="#p" />
<use x="133" y="406" xlink:href="#p" />
<use x="133" y="416" xlink:href="#p" />
<use x="133" y="426" xlink:href="#p" />
<use x="133" y="436" xlink:href="#p" />
<use x="133" y="446" xlink:href="#p" />
<use x="133" y="456" xlink:href="#p" />
<use x="133" y="466" xlink:href="#p" />
<use x="133" y="476" xlink:href="#p" />
<use x="133" y="486" xlink:href="#p" />
<use x="133" y="496" xlink:href="#p" />
<use x="133" y="506" xlink:href="#p" />
<use x="133" y="516" xlink:href="#p" />
<use x="133" y="526" xlink:href="#p" />
<use x="133" y="536" xlink:href="#p" />
<use x="133" y="546" xlink:href="#p" />
<use x="133" y="556" xlink:href="#p" />
<use x="133" y="566" xlink:href="#p" />
<use x="133" y="576" xlink:href="#p" />
<use x="143" y="256" xlink:href="#p" />
<use x="143" y="266" xlink:href="#p" />
<use x="143" y="276" xlink:href="#p" />
<use x="143" y="286" xlink:href="#p" />
<use x="143" y="296" xlink:href="#p" />
<use x="143" y="306" xlink:href="#p" />
<use x="143" y="316" xlink:href="#p" />
<use x="143" y="326" xlink:href="#p" />
<use x="143" y="336" xlink:href="#p" />
<use x="143" y="346" xlink:href="#p" />
<use x="143" y="356" xlink:href="#p" />
<use x="143" y="366" xlink:href="#p" />
<use x="143" y="376" xlink:href="#p" />
<use x="143" y="386" xlink:href="#p" />
<use x="143" y="396" xlink:href="#p" />
<use x="143" y="406" xlink:href="#p" />
<use x="143" y="416" xlink:href="#p" />
<use x="143" y="426" xlink:href="#p" />
<use x="143" y="436" xlink:href="#p" />
<use x="143" y="446" xlink:href="#p" />
<use x="143" y="456" xlink:href="#p" />
<use x="143" y="466" xlink:href="#p" />
<use x="143" y="476" xlink:href="#p" />
<use x="143" y="486" xlink:href="#p" />
<use x="143" y="496" xlink:href="#p" />
<use x="143" y="506" xlink:href="#p" />
<use x="143" y="516" xlink:href="#p" />
<use x="143" y="526" xlink:href="#p" />
<use x="143" y="536" xlink:href="#p" />
<use x="143" y="546" xlink:href="#p" />
<use x="143" y="556" xlink:href="#p" />
<use x="143" y="566" xlink:href="#p" />
<use x="143" y="576" xlink:href="#p" />
<use x="153" y="256" xlink:href="#p" />
<use x="153" y="266" xlink:href="#p" />
<use x="153" y="346" xlink:href="#p" />
<use x="153" y="366" xlink:href="#p" />
<use x="153" y="376" xlink:href="#p" />
<use x="153" y="406" xlink:href="#p" />
<use x="153" y="416" xlink:href="#p" />
<use x="153" y="426" xlink:href="#p" />
<use x="153" y="486" xlink:href="#p" />
<use x="153" y="566" xlink:href="#p" />
<use x="153" y="576" xlink:href="#p" />
<use x="163" y="256" xlink:href="#p" />
<use x="163" y="266" xlink:href="#p" />
<use x="163" y="286" xlink:href="#p" />
<use x="163" y="296" xlink:href="#p" />
<use x="163" y="306" xlink:href="#p" />
<use x="163" y="316" xlink:href="#p" />
<use x="163" y="326" xlink:href="#p" />
<use x="163" y="346" xlink:href="#p" />
<use x="163" y="376" xlink:href="#p" />
<use x="163" y="386" xlink:href="#p" />
<use x="163" y="396" xlink:href="#p" />
<use x="163" y="406" xlink:href="#p" />
<use x="163" y="426" xlink:href="#p" />
<use x="163" y="456" xlink:href="#p" />
<use x="163" y="466" xlink:href="#p" />
<use x="163" y="476" xlink:href="#p" />
<use x="163" y="486" xlink:href="#p" />
<use x="163" y="506" xlink:href="#p" />
<use x="163" y="516" xlink:href="#p" />
<use x="163" y="526" xlink:href="#p" />
<use x="163" y="536" xlink:href="#p" />
<use x="163" y="546" xlink:href="#p" />
<use x="163" y="566" xlink:href="#p" />
<use x="163" y="576" xlink:href="#p" />
<use x="173" y="256" xlink:href="#p" />
<use x="173" y="266" xlink:href="#p" />
<use x="173" y="286" xlink:href="#p" />
<use x="173" y="326" xlink:href="#p" />
<use x="173" y="346" xlink:href="#p" />
<use x="173" y="366" xlink:href="#p" />
<use x="173" y="376" xlink:href="#p" />
<use x="173" y="396" xlink:href="#p" />
<use x="173" y="406" xlink:href="#p" />
<use x="173" y="416" xlink:href="#p" />
<use x="173" y="426" xlink:href="#p" />
<use x="173" y="446" xlink:href="#p" />
<use x="173" y="466" xlink:href="#p" />
<use x="173" y="486" xlink:href="#p" />
<use x="173" y="506" xlink:href="#p" />
<use x="173" y="546" xlink:href="#p" />
<use x="173" y="566" xlink:href="#p" />
<use x="173" y="576" xlink:href="#p" />
<use x="183" y="256" xlink:href="#p" />
<use x="183" y="266" xlink:href="#p" />
<use x="183" y="286" xlink:href="#p" />
<use x="183" y="326" xlink:href="#p" />
<use x="183" y="346" xlink:href="#p" />
<use x="183" y="366" xlink:href="#p" />
<use x="183" y="376" xlink:href="#p" />
<use x="183" y="386" xlink:href="#p" />
<use x="183" y="396" xlink:href="#p" />
<use x="183" y="406" xlink:href="#p" />
<use x="183" y="416" xlink:href="#p" />
<use x="183" y="436" xlink:href="#p" />
<use x="183" y="456" xlink:href="#p" />
<use x="183" y="466" xlink:href="#p" />
<use x="183" y="476" xlink:href="#p" />
<use x="183" y="486" xlink:href="#p" />
<use x="183" y="506" xlink:href="#p" />
<use x="183" y="546" xlink:href="#p" />
<use x="183" y="566" xlink:href="#p" />
<use x="183" y="576" xlink:href="#p" />
<use x="193" y="256" xlink:href="#p" />
<use x="193" y="266" xlink:href="#p" />
<use x="193" y="286" xlink:href="#p" />
<use x="193" y="326" xlink:href="#p" />
<use x="193" y="346" xlink:href="#p" />
<use x="193" y="366" xlink:href="#p" />
<use x="193" y="376" xlink:href="#p" />
<use x="193" y="386" xlink:href="#p" />
<use x="193" y="396" xlink:href="#p" />
<use x="193" y="406" xlink:href="#p" />
<use x="193" y="456" xlink:href="#p" />
<use x="193" y="486" xlink:href="#p" />
<use x="193" y="506" xlink:href="#p" />
<use x="193" y="546" xlink:href="#p" />
<use x="193" y="566" xlink:href="#p" />
<use x="193" y="576" xlink:href="#p" />
<use x="203" y="256" xlink:href="#p" />
<use x="203" y="266" xlink:href="#p" />
<use x="203" y="286" xlink:href="#p" />
<use x="203" y="296" xlink:href="#p" />
<use x="203" y="306" xlink:href="#p" />
<use x="203" y="316" xlink:href="#p" />
<use x="203" y="326" xlink:href="#p" />
<use x="203" y="346" xlink:href="#p" />
<use x="203" y="356" xlink:href="#p" />
<use x="203" y="386" xlink:href="#p" />
<use x="203" y="396" xlink:href="#p" />
<use x="203" y="456" xlink:href="#p" />
<use x="203" y="476" xlink:href="#p" />
<use x="203" y="486" xlink:href="#p" />
<use x="203" y="506" xlink:href="#p" />
<use x="203" y="516" xlink:href="#p" />
<use x="203" y="526" xlink:href="#p" />
<use x="203" y="536" xlink:href="#p" />
<use x="203" y="546" xlink:href="#p" />
<use x="203" y="566" xlink:href="#p" />
<use x="203" y="576" xlink:href="#p" />
<use x="213" y="256" xlink:href="#p" />
<use x="213" y="266" xlink:href="#p" />
<use x="213" y="346" xlink:href="#p" />
<use x="213" y="366" xlink:href="#p" />
<use x="213" y="386" xlink:href="#p" />
<use x="213" y="406" xlink:href="#p" />
<use x="213" y="426" xlink:href="#p" />
<use x="213" y="446" xlink:href="#p" />
<use x="213" y="466" xlink:href="#p" />
<use x="213" y="486" xlink:href="#p" />
<use x="213" y="566" xlink:href="#p" />
<use x="213" y="576" xlink:href="#p" />
<use x="223" y="256" xlink:href="#p" />
<use x="223" y="266" xlink:href="#p" />
<use x="223" y="276" xlink:href="#p" />
<use x="223" y="286" xlink:href="#p" />
<use x="223" y="296" xlink:href="#p" />
<use x="223" y="306" xlink:href="#p" />
<use x="223" y="316" xlink:href="#p" />
<use x="223" y="326" xlink:href="#p" />
<use x="223" y="336" xlink:href="#p" />
<use x="223" y="346" xlink:href="#p" />
<use x="223" y="366" xlink:href="#p" />
<use x="223" y="386" xlink:href="#p" />
<use x="223" y="396" xlink:href="#p" />
<use x="223" y="436" xlink:href="#p" />
<use x="223" y="446" xlink:href="#p" />
<use x="223" y="456" xlink:href="#p" />
<use x="223" y="466" xlink:href="#p" />
<use x="223" y="486" xlink:href="#p" />
<use x="223" y="496" xlink:href="#p" />
<use x="223" y="506" xlink:href="#p" />
<use x="223" y="516" xlink:href="#p" />
<use x="223" y="526" xlink:href="#p" />
<use x="223" y="536" xlink:href="#p" />
<use x="223" y="546" xlink:href="#p" />
<use x="223" y="556" xlink:href="#p" />
<use x="223" y="566" xlink:href="#p" />
<use x="223" y="576" xlink:href="#p" />
<use x="233" y="256" xlink:href="#p" />
<use x="233" y="266" xlink:href="#p" />
<use x="233" y="276" xlink:href="#p" />
<use x="233" y="296" xlink:href="#p" />
<use x="233" y="316" xlink:href="#p" />
<use x="233" y="346" xlink:href="#p" />
<use x="233" y="396" xlink:href="#p" />
<use x="233" y="416" xlink:href="#p" />
<use x="233" y="426" xlink:href="#p" />
<use x="233" y="456" xlink:href="#p" />
<use x="233" y="466" xlink:href="#p" />
<use x="233" y="476" xlink:href="#p" />
<use x="233" y="506" xlink:href="#p" />
<use x="233" y="566" xlink:href="#p" />
<use x="233" y="576" xlink:href="#p" />
<use x="243" y="256" xlink:href="#p" />
<use x="243" y="266" xlink:href="#p" />
<use x="243" y="316" xlink:href="#p" />
<use x="243" y="326" xlink:href="#p" />
<use x="243" y="336" xlink:href="#p" />
<use x="243" y="346" xlink:href="#p" />
<use x="243" y="406" xlink:href="#p" />
<use x="243" y="426" xlink:href="#p" />
<use x="243" y="436" xlink:href="#p" />
<use x="243" y="446" xlink:href="#p" />
<use x="243" y="486" xlink:href="#p" />
<use x="243" y="496" xlink:href="#p" />
<use x="243" y="536" xlink:href="#p" />
<use x="243" y="566" xlink:href="#p" />
<use x="243" y="576" xlink:href="#p" />
<use x="253" y="256" xlink:href="#p" />
<use x="253" y="266" xlink:href="#p" />
<use x="253" y="276" xlink:href="#p" />
<use x="253" y="286" xlink:href="#p" />
<use x="253" y="306" xlink:href="#p" />
<use x="253" y="346" xlink:href="#p" />
<use x="253" y="366" xlink:href="#p" />
<use x="253" y="376" xlink:href="#p" />
<use x="253" y="396" xlink:href="#p" />
<use x="253" y="426" xlink:href="#p" />
<use x="253" y="436" xlink:href="#p" />
<use x="253" y="446" xlink:href="#p" />
<use x="253" y="466" xlink:href="#p" />
<use x="253" y="476" xlink:href="#p" />
<use x="253" y="486" xlink:href="#p" />
<use x="253" y="526" xlink:href="#p" />
<use x="253" y="556" xlink:href="#p" />
<use x="253" y="566" xlink:href="#p" />
<use x="253" y="576" xlink:href="#p" />
<use x="263" y="256" xlink:href="#p" />
<use x="263" y="266" xlink:href="#p" />
<use x="263" y="276" xlink:href="#p" />
<use x="263" y="316" xlink:href="#p" />
<use x="263" y="326" xlink:href="#p" />
<use x="263" y="336" xlink:href="#p" />
<use x="263" y="346" xlink:href="#p" />
<use x="263" y="356" xlink:href="#p" />
<use x="263" y="366" xlink:href="#p" />
<use x="263" y="406" xlink:href="#p" />
<use x="263" y="416" xlink:href="#p" />
<use x="263" y="426" xlink:href="#p" />
<use x="263" y="436" xlink:href="#p" />
<use x="263" y="446" xlink:href="#p" />
<use x="263" y="486" xlink:href="#p" />
<use x="263" y="496" xlink:href="#p" />
<use x="263" y="506" xlink:href="#p" />
<use x="263" y="526" xlink:href="#p" />
<use x="263" y="546" xlink:href="#p" />
<use x="263" y="556" xlink:href="#p" />
<use x="263" y="566" xlink:href="#p" />
<use x="263" y="576" xlink:href="#p" />
<use x="273" y="256" xlink:href="#p" />
<use x="273" y="266" xlink:href="#p" />
<use x="273" y="276" xlink:href="#p" />
<use x="273" y="296" xlink:href="#p" />
<use x="273" y="306" xlink:href="#p" />
<use x="273" y="326" xlink:href="#p" />
<use x="273" y="366" xlink:href="#p" />
<use x="273" y="386" xlink:href="#p" />
<use x="273" y="396" xlink:href="#p" />
<use x="273" y="416" xlink:href="#p" />
<use x="273" y="446" xlink:href="#p" />
<use x="273" y="466" xlink:href="#p" />
<use x="273" y="526" xlink:href="#p" />
<use x="273" y="536" xlink:href="#p" />
<use x="273" y="546" xlink:href="#p" />
<use x="273" y="556" xlink:href="#p" />
<use x="273" y="566" xlink:href="#p" />
<use x="273" y="576" xlink:href="#p" />
<use x="283" y="256" xlink:href="#p" />
<use x="283" y="266" xlink:href="#p" />
<use x="283" y="286" xlink:href="#p" />
<use x="283" y="306" xlink:href="#p" />
<use x="283" y="326" xlink:href="#p" />
<use x="283" y="336" xlink:href="#p" />
<use x="283" y="376" xlink:href="#p" />
<use x="283" y="406" xlink:href="#p" />
<use x="283" y="416" xlink:href="#p" />
<use x="283" y="456" xlink:href="#p" />
<use x="283" y="476" xlink:href="#p" />
<use x="283" y="486" xlink:href="#p" />
<use x="283" y="496" xlink:href="#p" />
<use x="283" y="516" xlink:href="#p" />
<use x="283" y="526" xlink:href="#p" />
<use x="283" y="536" xlink:href="#p" />
<use x="283" y="556" xlink:href="#p" />
<use x="283" y="566" xlink:href="#p" />
<use x="283" y="576" xlink:href="#p" />
<use x="293" y="256" xlink:href="#p" />
<use x="293" y="266" xlink:href="#p" />
<use x="293" y="356" xlink:href="#p" />
<use x="293" y="376" xlink:href="#p" />
<use x="293" y="396" xlink:href="#p" />
<use x="293" y="416" xlink:href="#p" />
<use x="293" y="436" xlink:href="#p" />
<use x="293" y="476" xlink:href="#p" />
<use x="293" y="486" xlink:href="#p" />
<use x="293" y="516" xlink:href="#p" />
<use x="293" y="536" xlink:href="#p" />
<use x="293" y="556" xlink:href="#p" />
<use x="293" y="566" xlink:href="#p" />
<use x="293" y="576" xlink:href="#p" />
<use x="303" y="256" xlink:href="#p" />
<use x="303" y="266" xlink:href="#p" />
<use x="303" y="276" xlink:href="#p" />
<use x="303" y="286" xlink:href="#p" />
<use x="303" y="316" xlink:href="#p" />
<use x="303" y="336" xlink:href="#p" />
<use x="303" y="386" xlink:href="#p" />
<use x="303" y="436" xlink:href="#p" />
<use x="303" y="456" xlink:href="#p" />
<use x="303" y="466" xlink:href="#p" />
<use x="303" y="536" xlink:href="#p" />
<use x="303" y="546" xlink:href="#p" />
<use x="303" y="556" xlink:href="#p" />
<use x="303" y="566" xlink:href="#p" />
<use x="303" y="576" xlink:href="#p" />
<use x="313" y="256" xlink:href="#p" />
<use x="313" y="266" xlink:href="#p" />
<use x="313" y="276" xlink:href="#p" />
<use x="313" y="306" xlink:href="#p" />
<use x="313" y="316" xlink:href="#p" />
<use x="313" y="326" xlink:href="#p" />
<use x="313" y="346" xlink:href="#p" />
<use x="313" y="386" xlink:href="#p" />
<use x="313" y="406" xlink:href="#p" />
<use x="313" y="426" xlink:href="#p" />
<use x="313" y="446" xlink:href="#p" />
<use x="313" y="456" xlink:href="#p" />
<use x="313" y="466" xlink:href="#p" />
<use x="313" y="496" xlink:href="#p" />
<use x="313" y="526" xlink:href="#p" />
<use x="313" y="536" xlink:href="#p" />
<use x="313" y="566" xlink:href="#p" />
<use x="313" y="576" xlink:href="#p" />
<use x="323" y="256" xlink:href="#p" />
<use x="323" y="266" xlink:href="#p" />
<use x="323" y="276" xlink:href="#p" />
<use x="323" y="296" xlink:href="#p" />
<use x="323" y="326" xlink:href="#p" />
<use x="323" y="336" xlink:href="#p" />
<use x="323" y="346" xlink:href="#p" />
<use x="323" y="366" xlink:href="#p" />
<use x="323" y="386" xlink:href="#p" />
<use x="323" y="406" xlink:href="#p" />
<use x="323" y="416" xlink:href="#p" />
<use x="323" y="426" xlink:href="#p" />
<use x="323" y="436" xlink:href="#p" />
<use x="323" y="456" xlink:href="#p" />
<use x="323" y="466" xlink:href="#p" />
<use x="323" y="476" xlink:href="#p" />
<use x="323" y="506" xlink:href="#p" />
<use x="323" y="516" xlink:href="#p" />
<use x="323" y="526" xlink:href="#p" />
<use x="323" y="546" xlink:href="#p" />
<use x="323" y="566" xlink:href="#p" />
<use x="323" y="576" xlink:href="#p" />
<use x="333" y="256" xlink:href="#p" />
<use x="333" y="266" xlink:href="#p" />
<use x="333" y="276" xlink:href="#p" />
<use x="333" y="296" xlink:href="#p" />
<use x="333" y="306" xlink:href="#p" />
<use x="333" y="346" xlink:href="#p" />
<use x="333" y="356" xlink:href="#p" />
<use x="333" y="366" xlink:href="#p" />
<use x="333" y="436" xlink:href="#p" />
<use x="333" y="446" xlink:href="#p" />
<use x="333" y="476" xlink:href="#p" />
<use x="333" y="486" xlink:href="#p" />
<use x="333" y="536" xlink:href="#p" />
<use x="333" y="566" xlink:href="#p" />
<use x="333" y="576" xlink:href="#p" />
<use x="343" y="256" xlink:href="#p" />
<use x="343" y="266" xlink:href="#p" />
<use x="343" y="276" xlink:href="#p" />
<use x="343" y="286" xlink:href="#p" />
<use x="343" y="296" xlink:href="#p" />
<use x="343" y="326" xlink:href="#p" />
<use x="343" y="336" xlink:href="#p" />
<use x="343" y="346" xlink:href="#p" />
<use x="343" y="356" xlink:href="#p" />
<use x="343" y="376" xlink:href="#p" />
<use x="343" y="386" xlink:href="#p" />
<use x="343" y="406" xlink:href="#p" />
<use x="343" y="416" xlink:href="#p" />
<use x="343" y="456" xlink:href="#p" />
<use x="343" y="466" xlink:href="#p" />
<use x="343" y="486" xlink:href="#p" />
<use x="343" y="516" xlink:href="#p" />
<use x="343" y="546" xlink:href="#p" />
<use x="343" y="566" xlink:href="#p" />
<use x="343" y="576" xlink:href="#p" />
<use x="353" y="256" xlink:href="#p" />
<use x="353" y="266" xlink:href="#p" />
<use x="353" y="296" xlink:href="#p" />
<use x="353" y="306" xlink:href="#p" />
<use x="353" y="356" xlink:href="#p" />
<use x="353" y="376" xlink:href="#p" />
<use x="353" y="386" xlink:href="#p" />
<use x="353" y="396" xlink:href="#p" />
<use x="353" y="436" xlink:href="#p" />
<use x="353" y="446" xlink:href="#p" />
<use x="353" y="556" xlink:href="#p" />
<use x="353" y="566" xlink:href="#p" />
<use x="353" y="576" xlink:href="#p" />
<use x="363" y="256" xlink:href="#p" />
<use x="363" y="266" xlink:href="#p" />
<use x="363" y="276" xlink:href="#p" />
<use x="363" y="286" xlink:href="#p" />
<use x="363" y="296" xlink:href="#p" />
<use x="363" y="306" xlink:href="#p" />
<use x="363" y="316" xlink:href="#p" />
<use x="363" y="326" xlink:href="#p" />
<use x="363" y="336" xlink:href="#p" />
<use x="363" y="346" xlink:href="#p" />
<use x="363" y="366" xlink:href="#p" />
<use x="363" y="376" xlink:href="#p" />
<use x="363" y="386" xlink:href="#p" />
<use x="363" y="396" xlink:href="#p" />
<use x="363" y="456" xlink:href="#p" />
<use x="363" y="486" xlink:href="#p" />
<use x="363" y="496" xlink:href="#p" />
<use x="363" y="506" xlink:href="#p" />
<use x="363" y="526" xlink:href="#p" />
<use x="363" y="556" xlink:href="#p" />
<use x="363" y="566" xlink:href="#p" />
<use x="363" y="576" xlink:href="#p" />
<use x="373" y="256" xlink:href="#p" />
<use x="373" y="266" xlink:href="#p" />
<use x="373" y="346" xlink:href="#p" />
<use x="373" y="356" xlink:href="#p" />
<use x="373" y="376" xlink:href="#p" />
<use x="373" y="386" xlink:href="#p" />
<use x="373" y="396" xlink:href="#p" />
<use x="373" y="416" xlink:href="#p" />
<use x="373" y="436" xlink:href="#p" />
<use x="373" y="486" xlink:href="#p" />
<use x="373" y="506" xlink:href="#p" />
<use x="373" y="526" xlink:href="#p" />
<use x="373" y="546" xlink:href="#p" />
<use x="373" y="566" xlink:href="#p" />
<use x="373" y="576" xlink:href="#p" />
<use x="383" y="256" xlink:href="#p" />
<use x="383" y="266" xlink:href="#p" />
<use x="383" y="286" xlink:href="#p" />
<use x="383" y="296" xlink:href="#p" />
<use x="383" y="306" xlink:href="#p" />
<use x="383" y="316" xlink:href="#p" />
<use x="383" y="326" xlink:href="#p" />
<use x="383" y="346" xlink:href="#p" />
<use x="383" y="376" xlink:href="#p" />
<use x="383" y="386" xlink:href="#p" />
<use x="383" y="396" xlink:href="#p" />
<use x="383" y="416" xlink:href="#p" />
<use x="383" y="466" xlink:href="#p" />
<use x="383" y="486" xlink:href="#p" />
<use x="383" y="496" xlink:href="#p" />
<use x="383" y="506" xlink:href="#p" />
<use x="383" y="526" xlink:href="#p" />
<use x="383" y="566" xlink:href="#p" />
<use x="383" y="576" xlink:href="#p" />
<use x="393" y="256" xlink:href="#p" />
<use x="393" y="266" xlink:href="#p" />
<use x="393" y="286" xlink:href="#p" />
<use x="393" y="326" xlink:href="#p" />
<use x="393" y="346" xlink:href="#p" />
<use x="393" y="356" xlink:href="#p" />
<use x="393" y="386" xlink:href="#p" />
<use x="393" y="396" xlink:href="#p" />
<use x="393" y="436" xlink:href="#p" />
<use x="393" y="466" xlink:href="#p" />
<use x="393" y="526" xlink:href="#p" />
<use x="393" y="546" xlink:href="#p" />
<use x="393" y="566" xlink:href="#p" />
<use x="393" y="576" xlink:href="#p" />
<use x="403" y="256" xlink:href="#p" />
<use x="403" y="266" xlink:href="#p" />
<use x="403" y="286" xlink:href="#p" />
<use x="403" y="326" xlink:href="#p" />
<use x="403" y="346" xlink:href="#p" />
<use x="403" y="366" xlink:href="#p" />
<use x="403" y="376" xlink:href="#p" />
<use x="403" y="406" xlink:href="#p" />
<use x="403" y="426" xlink:href="#p" />
<use x="403" y="446" xlink:href="#p" />
<use x="403" y="456" xlink:href="#p" />
<use x="403" y="466" xlink:href="#p" />
<use x="403" y="476" xlink:href="#p" />
<use x="403" y="506" xlink:href="#p" />
<use x="403" y="516" xlink:href="#p" />
<use x="403" y="556" xlink:href="#p" />
<use x="403" y="566" xlink:href="#p" />
<use x="403" y="576" xlink:href="#p" />
<use x="413" y="256" xlink:href="#p" />
<use x="413" y="266" xlink:href="#p" />
<use x="413" y="286" xlink:href="#p" />
<use x="413" y="326" xlink:href="#p" />
<use x="413" y="346" xlink:href="#p" />
<use x="413" y="356" xlink:href="#p" />
<use x="413" y="366" xlink:href="#p" />
<use x="413" y="376" xlink:href="#p" />
<use x="413" y="386" xlink:href="#p" />
<use x="413" y="406" xlink:href="#p" />
<use x="413" y="426" xlink:href="#p" />
<use x="413" y="466" xlink:href="#p" />
<use x="413" y="506" xlink:href="#p" />
<use x="413" y="546" xlink:href="#p" />
<use x="413" y="566" xlink:href="#p" />
<use x="413" y="576" xlink:href="#p" />
<use x="423" y="256" xlink:href="#p" />
<use x="423" y="266" xlink:href="#p" />
<use x="423" y="286" xlink:href="#p" />
<use x="423" y="296" xlink:href="#p" />
<use x="423" y="306" xlink:href="#p" />
<use x="423" y="316" xlink:href="#p" />
<use x="423" y="326" xlink:href="#p" />
<use x="423" y="346" xlink:href="#p" />
<use x="423" y="366" xlink:href="#p" />
<use x="423" y="376" xlink:href="#p" />
<use x="423" y="396" xlink:href="#p" />
<use x="423" y="406" xlink:href="#p" />
<use x="423" y="416" xlink:href="#p" />
<use x="423" y="436" xlink:href="#p" />
<use x="423" y="446" xlink:href="#p" />
<use x="423" y="456" xlink:href="#p" />
<use x="423" y="496" xlink:href="#p" />
<use x="423" y="506" xlink:href="#p" />
<use x="423" y="526" xlink:href="#p" />
<use x="423" y="556" xlink:href="#p" />
<use x="423" y="566" xlink:href="#p" />
<use x="423" y="576" xlink:href="#p" />
<use x="433" y="256" xlink:href="#p" />
<use x="433" y="266" xlink:href="#p" />
<use x="433" y="346" xlink:href="#p" />
<use x="433" y="356" xlink:href="#p" />
<use x="433" y="376" xlink:href="#p" />
<use x="433" y="386" xlink:href="#p" />
<use x="433" y="396" xlink:href="#p" />
<use x="433" y="416" xlink:href="#p" />
<use x="433" y="426" xlink:href="#p" />
<use x="433" y="436" xlink:href="#p" />
<use x="433" y="456" xlink:href="#p" />
<use x="433" y="466" xlink:href="#p" />
<use x="433" y="496" xlink:href="#p" />
<use x="433" y="506" xlink:href="#p" />
<use x="433" y="526" xlink:href="#p" />
<use x="433" y="536" xlink:href="#p" />
<use x="433" y="546" xlink:href="#p" />
<use x="433" y="556" xlink:href="#p" />
<use x="433" y="566" xlink:href="#p" />
<use x="433" y="576" xlink:href="#p" />
<use x="443" y="256" xlink:href="#p" />
<use x="443" y="266" xlink:href="#p" />
<use x="443" y="276" xlink:href="#p" />
<use x="443" y="286" xlink:href="#p" />
<use x="443" y="296" xlink:href="#p" />
<use x="443" y="306" xlink:href="#p" />
<use x="443" y="316" xlink:href="#p" />
<use x="443" y="326" xlink:href="#p" />
<use x="443" y="336" xlink:href="#p" />
<use x="443" y="346" xlink:href="#p" />
<use x="443" y="356" xlink:href="#p" />
<use x="443" y="366" xlink:href="#p" />
<use x="443" y="376" xlink:href="#p" />
<use x="443" y="386" xlink:href="#p" />
<use x="443" y="396" xlink:href="#p" />
<use x="443" y="406" xlink:href="#p" />
<use x="443" y="416" xlink:href="#p" />
<use x="443" y="426" xlink:href="#p" />
<use x="443" y="436" xlink:href="#p" />
<use x="443" y="446" xlink:href="#p" />
<use x="443" y="456" xlink:href="#p" />
<use x="443" y="466" xlink:href="#p" />
<use x="443" y="476" xlink:href="#p" />
<use x="443" y="486" xlink:href="#p" />
<use x="443" y="496" xlink:href="#p" />
<use x="443" y="506" xlink:href="#p" />
<use x="443" y="516" xlink:href="#p" />
<use x="443" y="526" xlink:href="#p" />
<use x="443" y="536" xlink:href="#p" />
<use x="443" y="546" xlink:href="#p" />
<use x="443" y="556" xlink:href="#p" />
<use x="443" y="566" xlink:href="#p" />
<use x="443" y="576" xlink:href="#p" />
<use x="453" y="256" xlink:href="#p" />
<use x="453" y="266" xlink:href="#p" />
<use x="453" y="276" xlink:href="#p" />
<use x="453" y="286" xlink:href="#p" />
<use x="453" y="296" xlink:href="#p" />
<use x="453" y="306" xlink:href="#p" />
<use x="453" y="316" xlink:href="#p" />
<use x="453" y="326" xlink:href="#p" />
<use x="453" y="336" xlink:href="#p" />
<use x="453" y="346" xlink:href="#p" />
<use x="453" y="356" xlink:href="#p" />
<use x="453" y="366" xlink:href="#p" />
<use x="453" y="376" xlink:href="#p" />
<use x="453" y="386" xlink:href="#p" />
<use x="453" y="396" xlink:href="#p" />
<use x="453" y="406" xlink:href="#p" />
<use x="453" y="416" xlink:href="#p" />
<use x="453" y="426" xlink:href="#p" />
<use x="453" y="436" xlink:href="#p" />
<use x="453" y="446" xlink:href="#p" />
<use x="453" y="456" xlink:href="#p" />
<use x="453" y="466" xlink:href="#p" />
<use x="453" y="476" xlink:href="#p" />
<use x="453" y="486" xlink:href="#p" />
<use x="453" y="496" xlink:href="#p" />
<use x="453" y="506" xlink:href="#p" />
<use x="453" y="516" xlink:href="#p" />
<use x="453" y="526" xlink:href="#p" />
<use x="453" y="536" xlink:href="#p" />
<use x="453" y="546" xlink:href="#p" />
<use x="453" y="556" xlink:href="#p" />
<use x="453" y="566" xlink:href="#p" />
<use x="453" y="576" xlink:href="#p" />
</g><g fill="#000000"><use x="153" y="276" xlink:href="#p" />
<use x="153" y="286" xlink:href="#p" />
<use x="153" y="296" xlink:href="#p" />
<use x="153" y="306" xlink:href="#p" />
<use x="153" y="316" xlink:href="#p" />
<use x="153" y="326" xlink:href="#p" />
<use x="153" y="336" xlink:href="#p" />
<use x="153" y="356" xlink:href="#p" />
<use x="153" y="386" xlink:href="#p" />
<use x="153" y="396" xlink:href="#p" />
<use x="153" y="436" xlink:href="#p" />
<use x="153" y="446" xlink:href="#p" />
<use x="153" y="456" xlink:href="#p" />
<use x="153" y="466" xlink:href="#p" />
<use x="153" y="476" xlink:href="#p" />
<use x="153" y="496" xlink:href="#p" />
<use x="153" y="506" xlink:href="#p" />
<use x="153" y="516" xlink:href="#p" />
<use x="153" y="526" xlink:href="#p" />
<use x="153" y="536" xlink:href="#p" />
<use x="153" y="546" xlink:href="#p" />
<use x="153" y="556" xlink:href="#p" />
<use x="163" y="276" xlink:href="#p" />
<use x="163" y="336" xlink:href="#p" />
<use x="163" y="356" xlink:href="#p" />
<use x="163" y="366" xlink:href="#p" />
<use x="163" y="416" xlink:href="#p" />
<use x="163" y="436" xlink:href="#p" />
<use x="163" y="446" xlink:href="#p" />
<use x="163" y="496" xlink:href="#p" />
<use x="163" y="556" xlink:href="#p" />
<use x="173" y="276" xlink:href="#p" />
<use x="173" y="296" xlink:href="#p" />
<use x="173" y="306" xlink:href="#p" />
<use x="173" y="316" xlink:href="#p" />
<use x="173" y="336" xlink:href="#p" />
<use x="173" y="356" xlink:href="#p" />
<use x="173" y="386" xlink:href="#p" />
<use x="173" y="436" xlink:href="#p" />
<use x="173" y="456" xlink:href="#p" />
<use x="173" y="476" xlink:href="#p" />
<use x="173" y="496" xlink:href="#p" />
<use x="173" y="516" xlink:href="#p" />
<use x="173" y="526" xlink:href="#p" />
<use x="173" y="536" xlink:href="#p" />
<use x="173" y="556" xlink:href="#p" />
<use x="183" y="276" xlink:href="#p" />
<use x="183" y="296" xlink:href="#p" />
<use x="183" y="306" xlink:href="#p" />
<use x="183" y="316" xlink:href="#p" />
<use x="183" y="336" xlink:href="#p" />
<use x="183" y="356" xlink:href="#p" />
<use x="183" y="426" xlink:href="#p" />
<use x="183" y="446" xlink:href="#p" />
<use x="183" y="496" xlink:href="#p" />
<use x="183" y="516" xlink:href="#p" />
<use x="183" y="526" xlink:href="#p" />
<use x="183" y="536" xlink:href="#p" />
<use x="183" y="556" xlink:href="#p" />
<use x="193" y="276" xlink:href="#p" />
<use x="193" y="296" xlink:href="#p" />
<use x="193" y="306" xlink:href="#p" />
<use x="193" y="316" xlink:href="#p" />
<use x="193" y="336" xlink:href="#p" />
<use x="193" y="356" xlink:href="#p" />
<use x="193" y="416" xlink:href="#p" />
<use x="193" y="426" xlink:href="#p" />
<use x="193" y="436" xlink:href="#p" />
<use x="193" y="446" xlink:href="#p" />
<use x="193" y="466" xlink:href="#p" />
<use x="193" y="476" xlink:href="#p" />
<use x="193" y="496" xlink:href="#p" />
<use x="193" y="516" xlink:href="#p" />
<use x="193" y="526" xlink:href="#p" />
<use x="193" y="536" xlink:href="#p" />
<use x="193" y="556" xlink:href="#p" />
<use x="203" y="276" xlink:href="#p" />
<use x="203" y="336" xlink:href="#p" />
<use x="203" y="366" xlink:href="#p" />
<use x="203" y="376" xlink:href="#p" />
<use x="203" y="406" xlink:href="#p" />
<use x="203" y="416" xlink:href="#p" />
<use x="203" y="426" xlink:href="#p" />
<use x="203" y="436" xlink:href="#p" />
<use x="203" y="446" xlink:href="#p" />
<use x="203" y="466" xlink:href="#p" />
<use x="203" y="496" xlink:href="#p" />
<use x="203" y="556" xlink:href="#p" />
<use x="213" y="276" xlink:href="#p" />
<use x="213" y="286" xlink:href="#p" />
<use x="213" y="296" xlink:href="#p" />
<use x="213" y="306" xlink:href="#p" />
<use x="213" y="316" xlink:href="#p" />
<use x="213" y="326" xlink:href="#p" />
<use x="213" y="336" xlink:href="#p" />
<use x="213" y="356" xlink:href="#p" />
<use x="213" y="376" xlink:href="#p" />
<use x="213" y="396" xlink:href="#p" />
<use x="213" y="416" xlink:href="#p" />
<use x="213" y="436" xlink:href="#p" />
<use x="213" y="456" xlink:href="#p" />
<use x="213" y="476" xlink:href="#p" />
<use x="213" y="496" xlink:href="#p" />
<use x="213" y="506" xlink:href="#p" />
<use x="213" y="516" xlink:href="#p" />
<use x="213" y="526" xlink:href="#p" />
<use x="213" y="536" xlink:href="#p" />
<use x="213" y="546" xlink:href="#p" />
<use x="213" y="556" xlink:href="#p" />
<use x="223" y="356" xlink:href="#p" />
<use x="223" y="376" xlink:href="#p" />
<use x="223" y="406" xlink:href="#p" />
<use x="223" y="416" xlink:href="#p" />
<use x="223" y="426" xlink:href="#p" />
<use x="223" y="476" xlink:href="#p" />
<use x="233" y="286" xlink:href="#p" />
<use x="233" y="306" xlink:href="#p" />
<use x="233" y="326" xlink:href="#p" />
<use x="233" y="336" xlink:href="#p" />
<use x="233" y="356" xlink:href="#p" />
<use x="233" y="366" xlink:href="#p" />
<use x="233" y="376" xlink:href="#p" />
<use x="233" y="386" xlink:href="#p" />
<use x="233" y="406" xlink:href="#p" />
<use x="233" y="436" xlink:href="#p" />
<use x="233" y="446" xlink:href="#p" />
<use x="233" y="486" xlink:href="#p" />
<use x="233" y="496" xlink:href="#p" />
<use x="233" y="516" xlink:href="#p" />
<use x="233" y="526" xlink:href="#p" />
<use x="233" y="536" xlink:href="#p" />
<use x="233" y="546" xlink:href="#p" />
<use x="233" y="556" xlink:href="#p" />
<use x="243" y="276" xlink:href="#p" />
<use x="243" y="286" xlink:href="#p" />
<use x="243" y="296" xlink:href="#p" />
<use x="243" y="306" xlink:href="#p" />
<use x="243" y="356" xlink:href="#p" />
<use x="243" y="366" xlink:href="#p" />
<use x="243" y="376" xlink:href="#p" />
<use x="243" y="386" xlink:href="#p" />
<use x="243" y="396" xlink:href="#p" />
<use x="243" y="416" xlink:href="#p" />
<use x="243" y="456" xlink:href="#p" />
<use x="243" y="466" xlink:href="#p" />
<use x="243" y="476" xlink:href="#p" />
<use x="243" y="506" xlink:href="#p" />
<use x="243" y="516" xlink:href="#p" />
<use x="243" y="526" xlink:href="#p" />
<use x="243" y="546" xlink:href="#p" />
<use x="243" y="556" xlink:href="#p" />
<use x="253" y="296" xlink:href="#p" />
<use x="253" y="316" xlink:href="#p" />
<use x="253" y="326" xlink:href="#p" />
<use x="253" y="336" xlink:href="#p" />
<use x="253" y="356" xlink:href="#p" />
<use x="253" y="386" xlink:href="#p" />
<use x="253" y="406" xlink:href="#p" />
<use x="253" y="416" xlink:href="#p" />
<use x="253" y="456" xlink:href="#p" />
<use x="253" y="496" xlink:href="#p" />
<use x="253" y="506" xlink:href="#p" />
<use x="253" y="516" xlink:href="#p" />
<use x="253" y="536" xlink:href="#p" />
<use x="253" y="546" xlink:href="#p" />
<use x="263" y="286" xlink:href="#p" />
<use x="263" y="296" xlink:href="#p" />
<use x="263" y="306" xlink:href="#p" />
<use x="263" y="376" xlink:href="#p" />
<use x="263" y="386" xlink:href="#p" />
<use x="263" y="396" xlink:href="#p" />
<use x="263" y="456" xlink:href="#p" />
<use x="263" y="466" xlink:href="#p" />
<use x="263" y="476" xlink:href="#p" />
<use x="263" y="516" xlink:href="#p" />
<use x="263" y="536" xlink:href="#p" />
<use x="273" y="286" xlink:href="#p" />
<use x="273" y="316" xlink:href="#p" />
<use x="273" y="336" xlink:href="#p" />
<use x="273" y="346" xlink:href="#p" />
<use x="273" y="356" xlink:href="#p" />
<use x="273" y="376" xlink:href="#p" />
<use x="273" y="406" xlink:href="#p" />
<use x="273" y="426" xlink:href="#p" />
<use x="273" y="436" xlink:href="#p" />
<use x="273" y="456" xlink:href="#p" />
<use x="273" y="476" xlink:href="#p" />
<use x="273" y="486" xlink:href="#p" />
<use x="273" y="496" xlink:href="#p" />
<use x="273" y="506" xlink:href="#p" />
<use x="273" y="516" xlink:href="#p" />
<use x="283" y="276" xlink:href="#p" />
<use x="283" y="296" xlink:href="#p" />
<use x="283" y="316" xlink:href="#p" />
<use x="283" y="346" xlink:href="#p" />
<use x="283" y="356" xlink:href="#p" />
<use x="283" y="366" xlink:href="#p" />
<use x="283" y="386" xlink:href="#p" />
<use x="283" y="396" xlink:href="#p" />
<use x="283" y="426" xlink:href="#p" />
<use x="283" y="436" xlink:href="#p" />
<use x="283" y="446" xlink:href="#p" />
<use x="283" y="466" xlink:href="#p" />
<use x="283" y="506" xlink:href="#p" />
<use x="283" y="546" xlink:href="#p" />
<use x="293" y="276" xlink:href="#p" />
<use x="293" y="286" xlink:href="#p" />
<use x="293" y="296" xlink:href="#p" />
<use x="293" y="306" xlink:href="#p" />
<use x="293" y="316" xlink:href="#p" />
<use x="293" y="326" xlink:href="#p" />
<use x="293" y="336" xlink:href="#p" />
<use x="293" y="346" xlink:href="#p" />
<use x="293" y="366" xlink:href="#p" />
<use x="293" y="386" xlink:href="#p" />
<use x="293" y="406" xlink:href="#p" />
<use x="293" y="426" xlink:href="#p" />
<use x="293" y="446" xlink:href="#p" />
<use x="293" y="456" xlink:href="#p" />
<use x="293" y="466" xlink:href="#p" />
<use x="293" y="496" xlink:href="#p" />
<use x="293" y="506" xlink:href="#p" />
<use x="293" y="526" xlink:href="#p" />
<use x="293" y="546" xlink:href="#p" />
<use x="303" y="296" xlink:href="#p" />
<use x="303" y="306" xlink:href="#p" />
<use x="303" y="326" xlink:href="#p" />
<use x="303" y="346" xlink:href="#p" />
<use x="303" y="356" xlink:href="#p" />
<use x="303" y="366" xlink:href="#p" />
<use x="303" y="376" xlink:href="#p" />
<use x="303" y="396" xlink:href="#p" />
<use x="303" y="406" xlink:href="#p" />
<use x="303" y="416" xlink:href="#p" />
<use x="303" y="426" xlink:href="#p" />
<use x="303" y="446" xlink:href="#p" />
<use x="303" y="476" xlink:href="#p" />
<use x="303" y="486" xlink:href="#p" />
<use x="303" y="496" xlink:href="#p" />
<use x="303" y="506" xlink:href="#p" />
<use x="303" y="516" xlink:href="#p" />
<use x="303" y="526" xlink:href="#p" />
<use x="313" y="286" xlink:href="#p" />
<use x="313" y="296" xlink:href="#p" />
<use x="313" y="336" xlink:href="#p" />
<use x="313" y="356" xlink:href="#p" />
<use x="313" y="366" xlink:href="#p" />
<use x="313" y="376" xlink:href="#p" />
<use x="313" y="396" xlink:href="#p" />
<use x="313" y="416" xlink:href="#p" />
<use x="313" y="436" xlink:href="#p" />
<use x="313" y="476" xlink:href="#p" />
<use x="313" y="486" xlink:href="#p" />
<use x="313" y="506" xlink:href="#p" />
<use x="313" y="516" xlink:href="#p" />
<use x="313" y="546" xlink:href="#p" />
<use x="313" y="556" xlink:href="#p" />
<use x="323" y="286" xlink:href="#p" />
<use x="323" y="306" xlink:href="#p" />
<use x="323" y="316" xlink:href="#p" />
<use x="323" y="356" xlink:href="#p" />
<use x="323" y="376" xlink:href="#p" />
<use x="323" y="396" xlink:href="#p" />
<use x="323" y="446" xlink:href="#p" />
<use x="323" y="486" xlink:href="#p" />
<use x="323" y="496" xlink:href="#p" />
<use x="323" y="536" xlink:href="#p" />
<use x="323" y="556" xlink:href="#p" />
<use x="333" y="286" xlink:href="#p" />
<use x="333" y="316" xlink:href="#p" />
<use x="333" y="326" xlink:href="#p" />
<use x="333" y="336" xlink:href="#p" />
<use x="333" y="376" xlink:href="#p" />
<use x="333" y="386" xlink:href="#p" />
<use x="333" y="396" xlink:href="#p" />
<use x="333" y="406" xlink:href="#p" />
<use x="333" y="416" xlink:href="#p" />
<use x="333" y="426" xlink:href="#p" />
<use x="333" y="456" xlink:href="#p" />
<use x="333" y="466" xlink:href="#p" />
<use x="333" y="496" xlink:href="#p" />
<use x="333" y="506" xlink:href="#p" />
<use x="333" y="516" xlink:href="#p" />
<use x="333" y="526" xlink:href="#p" />
<use x="333" y="546" xlink:href="#p" />
<use x="333" y="556" xlink:href="#p" />
<use x="343" y="306" xlink:href="#p" />
<use x="343" y="316" xlink:href="#p" />
<use x="343" y="366" xlink:href="#p" />
<use x="343" y="396" xlink:href="#p" />
<use x="343" y="426" xlink:href="#p" />
<use x="343" y="436" xlink:href="#p" />
<use x="343" y="446" xlink:href="#p" />
<use x="343" y="476" xlink:href="#p" />
<use x="343" y="496" xlink:href="#p" />
<use x="343" y="506" xlink:href="#p" />
<use x="343" y="526" xlink:href="#p" />
<use x="343" y="536" xlink:href="#p" />
<use x="343" y="556" xlink:href="#p" />
<use x="353" y="276" xlink:href="#p" />
<use x="353" y="286" xlink:href="#p" />
<use x="353" y="316" xlink:href="#p" />
<use x="353" y="326" xlink:href="#p" />
<use x="353" y="336" xlink:href="#p" />
<use x="353" y="346" xlink:href="#p" />
<use x="353" y="366" xlink:href="#p" />
<use x="353" y="406" xlink:href="#p" />
<use x="353" y="416" xlink:href="#p" />
<use x="353" y="426" xlink:href="#p" />
<use x="353" y="456" xlink:href="#p" />
<use x="353" y="466" xlink:href="#p" />
<use x="353" y="476" xlink:href="#p" />
<use x="353" y="486" xlink:href="#p" />
<use x="353" y="496" xlink:href="#p" />
<use x="353" y="506" xlink:href="#p" />
<use x="353" y="516" xlink:href="#p" />
<use x="353" y="526" xlink:href="#p" />
<use x="353" y="536" xlink:href="#p" />
<use x="353" y="546" xlink:href="#p" />
<use x="363" y="356" xlink:href="#p" />
<use x="363" y="406" xlink:href="#p" />
<use x="363" y="416" xlink:href="#p" />
<use x="363" y="426" xlink:href="#p" />
<use x="363" y="436" xlink:href="#p" />
<use x="363" y="446" xlink:href="#p" />
<use x="363" y="466" xlink:href="#p" />
<use x="363" y="476" xlink:href="#p" />
<use x="363" y="516" xlink:href="#p" />
<use x="363" y="536" xlink:href="#p" />
<use x="363" y="546" xlink:href="#p" />
<use x="373" y="276" xlink:href="#p" />
<use x="373" y="286" xlink:href="#p" />
<use x="373" y="296" xlink:href="#p" />
<use x="373" y="306" xlink:href="#p" />
<use x="373" y="316" xlink:href="#p" />
<use x="373" y="326" xlink:href="#p" />
<use x="373" y="336" xlink:href="#p" />
<use x="373" y="366" xlink:href="#p" />
<use x="373" y="406" xlink:href="#p" />
<use x="373" y="426" xlink:href="#p" />
<use x="373" y="446" xlink:href="#p" />
<use x="373" y="456" xlink:href="#p" />
<use x="373" y="466" xlink:href="#p" />
<use x="373" y="476" xlink:href="#p" />
<use x="373" y="496" xlink:href="#p" />
<use x="373" y="516" xlink:href="#p" />
<use x="373" y="536" xlink:href="#p" />
<use x="373" y="556" xlink:href="#p" />
<use x="383" y="276" xlink:href="#p" />
<use x="383" y="336" xlink:href="#p" />
<use x="383" y="356" xlink:href="#p" />
<use x="383" y="366" xlink:href="#p" />
<use x="383" y="406" xlink:href="#p" />
<use x="383" y="426" xlink:href="#p" />
<use x="383" y="436" xlink:href="#p" />
<use x="383" y="446" xlink:href="#p" />
<use x="383" y="456" xlink:href="#p" />
<use x="383" y="476" xlink:href="#p" />
<use x="383" y="516" xlink:href="#p" />
<use x="383" y="536" xlink:href="#p" />
<use x="383" y="546" xlink:href="#p" />
<use x="383" y="556" xlink:href="#p" />
<use x="393" y="276" xlink:href="#p" />
<use x="393" y="296" xlink:href="#p" />
<use x="393" y="306" xlink:href="#p" />
<use x="393" y="316" xlink:href="#p" />
<use x="393" y="336" xlink:href="#p" />
<use x="393" y="366" xlink:href="#p" />
<use x="393" y="376" xlink:href="#p" />
<use x="393" y="406" xlink:href="#p" />
<use x="393" y="416" xlink:href="#p" />
<use x="393" y="426" xlink:href="#p" />
<use x="393" y="446" xlink:href="#p" />
<use x="393" y="456" xlink:href="#p" />
<use x="393" y="476" xlink:href="#p" />
<use x="393" y="486" xlink:href="#p" />
<use x="393" y="496" xlink:href="#p" />
<use x="393" y="506" xlink:href="#p" />
<use x="393" y="516" xlink:href="#p" />
<use x="393" y="536" xlink:href="#p" />
<use x="393" y="556" xlink:href="#p" />
<use x="403" y="276" xlink:href="#p" />
<use x="403" y="296" xlink:href="#p" />
<use x="403" y="306" xlink:href="#p" />
<use x="403" y="316" xlink:href="#p" />
<use x="403" y="336" xlink:href="#p" />
<use x="403" y="356" xlink:href="#p" />
<use x="403" y="386" xlink:href="#p" />
<use x="403" y="396" xlink:href="#p" />
<use x="403" y="416" xlink:href="#p" />
<use x="403" y="436" xlink:href="#p" />
<use x="403" y="486" xlink:href="#p" />
<use x="403" y="496" xlink:href="#p" />
<use x="403" y="526" xlink:href="#p" />
<use x="403" y="536" xlink:href="#p" />
<use x="403" y="546" xlink:href="#p" />
<use x="413" y="276" xlink:href="#p" />
<use x="413" y="296" xlink:href="#p" />
<use x="413" y="306" xlink:href="#p" />
<use x="413" y="316" xlink:href="#p" />
<use x="413" y="336" xlink:href="#p" />
<use x="413" y="396" xlink:href="#p" />
<use x="413" y="416" xlink:href="#p" />
<use x="413" y="436" xlink:href="#p" />
<use x="413" y="446" xlink:href="#p" />
<use x="413" y="456" xlink:href="#p" />
<use x="413" y="476" xlink:href="#p" />
<use x="413" y="486" xlink:href="#p" />
<use x="413" y="496" xlink:href="#p" />
<use x="413" y="516" xlink:href="#p" />
<use x="413" y="526" xlink:href="#p" />
<use x="413" y="536" xlink:href="#p" />
<use x="413" y="556" xlink:href="#p" />
<use x="423" y="276" xlink:href="#p" />
<use x="423" y="336" xlink:href="#p" />
<use x="423" y="356" xlink:href="#p" />
<use x="423" y="386" xlink:href="#p" />
<use x="423" y="426" xlink:href="#p" />
<use x="423" y="466" xlink:href="#p" />
<use x="423" y="476" xlink:href="#p" />
<use x="423" y="486" xlink:href="#p" />
<use x="423" y="516" xlink:href="#p" />
<use x="423" y="536" xlink:href="#p" />
<use x="423" y="546" xlink:href="#p" />
<use x="433" y="276" xlink:href="#p" />
<use x="433" y="286" xlink:href="#p" />
<use x="433" y="296" xlink:href="#p" />
<use x="433" y="306" xlink:href="#p" />
<use x="433" y="316" xlink:href="#p" />
<use x="433" y="326" xlink:href="#p" />
<use x="433" y="336" xlink:href="#p" />
<use x="433" y="366" xlink:href="#p" />
<use x="433" y="406" xlink:href="#p" />
<use x="433" y="446" xlink:href="#p" />
<use x="433" y="476" xlink:href="#p" />
<use x="433" y="486" xlink:href="#p" />
<use x="433" y="516" xlink:href="#p" />
</g></svg>